IKResults EF2
version=1
nRows=9
nColumns=24
inDegrees=yes

Units are S.I. units (second, meters, Newtons, ...)
If the header above contains a line with 'inDegrees', this indicates whether rotational values are in degrees (yes) or radians (no).

endheader
time	pelvis_tilt	pelvis_list	pelvis_rotation	pelvis_tx	pelvis_ty	pelvis_tz	hip_flexion_r	hip_adduction_r	hip_rotation_r	knee_angle_r	ankle_angle_r	subtalar_angle_r	mtp_angle_r	hip_flexion_l	hip_adduction_l	hip_rotation_l	knee_angle_l	ankle_angle_l	subtalar_angle_l	mtp_angle_l	lumbar_extension	lumbar_bending	lumbar_rotation
      6.14000000	      2.95634315	     -3.75156671	    -82.05527436	     -0.19235152	      0.95212208	      0.02741271	     31.37820761	     -7.20029871	     -3.90494779	    -19.71502031	     10.92065396	    -13.78459421	      0.00000000	    -14.15445774	      6.22620012	     12.16757679	    -13.70563756	     21.41018360	     -9.00721819	      0.00000000	    -15.03584683	     -3.02836000	     -6.78968354
      6.15000000	      2.91496915	     -3.57964444	    -81.73891057	     -0.19266856	      0.94962359	      0.04182731	     31.45223339	     -7.17691088	     -3.03830319	    -17.30038438	     10.96003014	    -13.73563850	      0.00000000	    -14.74724520	      5.95427552	     12.11254755	    -14.03548631	     21.44081615	     -8.96636529	      0.00000000	    -14.95031827	     -2.95697040	     -6.82337092
      6.16000000	      2.79819034	     -3.39628965	    -81.41684324	     -0.19309538	      0.94723723	      0.05631918	     31.50204727	     -7.06724290	     -2.15094409	    -15.17752934	     11.02288697	    -13.70361132	      0.00000000	    -15.21467521	      5.57750367	     11.99641853	    -14.53628839	     21.50103029	     -8.90624551	      0.00000000	    -14.85138670	     -2.78989805	     -6.89974076
      6.17000000	      2.63429523	     -3.16407051	    -81.09732720	     -0.19352553	      0.94490210	      0.07109236	     31.61718845	     -6.94113528	     -1.51025558	    -13.58980942	     12.03520947	    -13.76347053	      0.00000000	    -15.57255262	      5.17264017	     11.76163300	    -15.13418193	     22.39572904	     -7.79577585	      0.00000000	    -14.57614245	     -2.44972663	     -7.91987111
      6.18000000	      2.42804223	     -2.95024866	    -80.75051808	     -0.19418830	      0.94273639	      0.08593499	     31.69695162	     -6.76220294	     -1.36930875	    -12.47689628	     12.08687693	    -13.74799547	      0.00000000	    -15.85046026	      4.69235153	     11.58656553	    -15.88807404	     22.42375567	     -7.60803440	      0.00000000	    -14.42073106	     -2.07708445	     -7.94032903
      6.19000000	      2.20797116	     -2.77846115	    -80.40009036	     -0.19485357	      0.94055883	      0.10110847	     31.69048579	     -6.56856630	     -1.57256202	    -11.89533290	     12.23268191	    -13.78261821	      0.00000000	    -16.14180794	      4.19624987	     11.53701182	    -16.71836392	     22.45973080	     -7.37973991	      0.00000000	    -14.26523140	     -1.69535773	     -8.06606351
      6.20000000	      2.02992551	     -2.65440730	    -80.07487698	     -0.19565938	      0.93844202	      0.11667682	     31.60693009	     -6.36954819	     -1.79346754	    -11.83466718	     12.90724863	    -13.66302563	      0.00000000	    -16.47713742	      3.72601693	     11.53076865	    -17.61486978	     22.57852710	     -6.11707018	      0.00000000	    -14.11284354	     -1.49746868	     -8.87065362
      6.21000000	      1.89370079	     -2.57010117	    -79.79223893	     -0.19654123	      0.93642275	      0.13255932	     31.46977998	     -6.15449808	     -1.91947868	    -12.37497134	     12.87158676	    -13.47671347	      0.00000000	    -16.81960936	      3.31087893	     11.64809320	    -18.58029361	     22.55853401	     -6.00908905	      0.00000000	    -13.99530950	     -1.19430139	     -8.87092314
      6.22000000	      1.75857140	     -2.54189192	    -79.44949761	     -0.19726430	      0.93454747	      0.14854919	     31.21398888	     -5.93342263	     -2.04957200	    -13.33700799	     13.08600062	    -11.71709783	      0.00000000	    -17.16888927	      2.90355376	     11.94187183	    -19.62488169	     21.98616927	     -5.42609564	      0.00000000	    -13.93495383	     -1.00782152	     -9.36064296
